<svg width="49" height="49" viewBox="0 0 49 49" fill="none" xmlns="http://www.w3.org/2000/svg">
<path d="M40.2986 37.0938L13.2755 41.4091L9.7915 20.0662L36.8145 15.7511L40.2986 37.0938Z" fill="#7D91FA"/>
<path d="M13.5802 25.5174L34.6676 22.1476L34.4544 20.8134L13.367 24.1832L13.5802 25.5174Z" fill="white"/>
<path d="M14.1892 28.8501L35.2762 25.4826L35.0633 24.1491L13.9762 27.5166L14.1892 28.8501Z" fill="white"/>
<path d="M14.7467 32.3964L35.8345 29.0288L35.6214 27.6946L14.5336 31.0623L14.7467 32.3964Z" fill="white"/>
<path d="M26.9255 33.9709L15.3004 35.8282L15.0858 34.4943L26.7114 32.6368L26.9255 33.9709Z" fill="white"/>
<path d="M23.377 20.9332L22.7502 17.0296H24.0748L23.4303 20.9332H23.377Z" fill="#7D8880"/>
<path d="M20.4946 7.51705L20.7196 7.90493L22.148 9.20855L21.4357 14.4292L21.7094 16.8135L22.7298 17.3924L24.6668 17.4399L26.0879 16.6133L25.1584 15.1115L24.6302 9.42342L24.6574 8.6459L25.9281 7.87108L26.0832 7.4751L20.4946 7.51705Z" fill="#F06668"/>
<path d="M25.7567 17.1131C25.2819 17.4274 24.7002 17.6315 24.0648 17.7006L23.8511 17.7189C23.8266 17.7209 23.8029 17.7243 23.7784 17.7243L23.5821 17.7301C23.1924 17.7282 22.8158 17.6769 22.4688 17.5751C21.1682 17.1978 20.231 16.1886 20.2135 14.9914C20.2046 14.3199 20.5571 14.1804 21.218 13.7476L21.9897 9.27542C21.3637 9.06325 20.8679 8.34628 20.6141 7.80117C21.4713 8.51576 22.4789 8.68597 23.1989 8.69293C23.2234 8.87362 23.2906 9.38737 23.2933 9.46308C23.7529 9.46463 24.1338 9.39703 24.3985 9.32433L24.3992 9.32163L24.5255 8.53165C25.0886 8.38709 25.5821 8.15436 25.9271 7.87148C25.7197 8.3389 25.3788 8.90436 24.9437 9.11414C24.9437 9.11414 25.4981 12.29 25.7189 13.6205C26.4335 14.0305 27.0258 14.2037 27.0363 14.8973C27.0503 15.7896 26.5471 16.5901 25.7567 17.1131ZM24.4122 9.46463C24.1398 9.53733 23.757 9.6041 23.2954 9.60223L23.2646 15.7286C23.4636 15.7465 23.6642 15.7535 23.8603 15.7376C24.2773 15.7026 24.653 15.5818 24.9611 15.3949L24.4122 9.46463ZM25.8255 16.6872L25.0048 15.5304C24.6826 15.7189 24.298 15.8405 23.8721 15.8762C23.6661 15.8937 23.4559 15.8844 23.2461 15.8657L22.6511 17.1702L22.6468 17.1799C22.9682 17.2429 23.307 17.2747 23.6588 17.2701C24.4829 17.258 25.2368 17.0478 25.8224 16.707L25.8255 16.6872ZM23.6098 8.54255C22.889 8.59541 21.5286 8.53051 20.4946 7.51704C20.427 7.38723 20.385 7.25201 20.3834 7.11057C20.3815 6.9575 20.4227 6.80899 20.4973 6.66723C20.8458 6.01942 21.9514 5.53642 23.2686 5.517C24.5859 5.49955 25.7042 5.95296 26.0695 6.58987C26.1503 6.72934 26.1947 6.87701 26.1974 7.0305C26.1993 7.18441 26.1589 7.33364 26.0827 7.47539C26.0745 7.49907 26.0633 7.52784 26.0535 7.55276C25.6207 8.06422 24.6353 8.46788 23.6098 8.54255Z" fill="#E84849"/>
</svg>
